# xmcd
#
# Track frame offsets: 
#        150
#        14225
#        31937
#        49850
#        63747
#        77702
#
# Disc length: 1261 seconds
#
# Revision: 2
# Processed by: cddbd v1.5.2PL0 Copyright (c) Steve Scherf et al.
# Submitted via: ExactAudioCopy v0.99pb5
#
DISCID=4e04eb06
DTITLE=Various Artist - Bmg Visa Volume 3
DYEAR=2000
DGENRE=Country
TTITLE0=Clint Black - Rob Away My Blues
TTITLE1=Phil Vasssar - Just Another Day In Paradise
TTITLE2=John Rich - I Pray For You
TTITLE3=Bill Engvall - Now That's Awesome
TTITLE4=Andy Griggs - I'll Go Crazy
TTITLE5=Brad Paisley - We Danced
EXTD=
EXTT0=
EXTT1=
EXTT2=
EXTT3=
EXTT4=
EXTT5=
PLAYORDER=
